<svg width="191" height="104" viewBox="0 0 191 104" fill="none" xmlns="http://www.w3.org/2000/svg">
<circle cx="4.27233" cy="4.27233" r="4.27233" fill="white"/>
<circle cx="108.074" cy="4.27233" r="4.27233" fill="white"/>
<circle cx="30.2225" cy="4.27233" r="4.27233" fill="white"/>
<circle cx="134.024" cy="4.27233" r="4.27233" fill="white"/>
<circle cx="56.1732" cy="4.27233" r="4.27233" fill="white"/>
<circle cx="159.975" cy="4.27233" r="4.27233" fill="white"/>
<circle cx="82.1239" cy="4.27233" r="4.27233" fill="white"/>
<circle cx="185.926" cy="4.27233" r="4.27233" fill="white"/>
<circle cx="4.27233" cy="35.8168" r="4.27233" fill="white"/>
<circle cx="108.074" cy="35.8168" r="4.27233" fill="white"/>
<circle cx="30.2225" cy="35.8168" r="4.27233" fill="white"/>
<circle cx="134.024" cy="35.8168" r="4.27233" fill="white"/>
<circle cx="56.1732" cy="35.8168" r="4.27233" fill="white"/>
<circle cx="159.975" cy="35.8168" r="4.27233" fill="white"/>
<circle cx="82.1239" cy="35.8168" r="4.27233" fill="white"/>
<circle cx="185.926" cy="35.8168" r="4.27233" fill="white"/>
<circle cx="4.27233" cy="67.3617" r="4.27233" fill="white"/>
<circle cx="108.074" cy="67.3617" r="4.27233" fill="white"/>
<circle cx="30.2225" cy="67.3617" r="4.27233" fill="white"/>
<circle cx="134.024" cy="67.3617" r="4.27233" fill="white"/>
<circle cx="56.1732" cy="67.3617" r="4.27233" fill="white"/>
<circle cx="159.975" cy="67.3617" r="4.27233" fill="white"/>
<circle cx="82.1239" cy="67.3617" r="4.27233" fill="white"/>
<circle cx="185.926" cy="67.3617" r="4.27233" fill="white"/>
<circle cx="4.27233" cy="98.9061" r="4.27233" fill="white"/>
<circle cx="108.074" cy="98.9061" r="4.27233" fill="white"/>
<circle cx="30.2225" cy="98.9061" r="4.27233" fill="white"/>
<circle cx="134.024" cy="98.9061" r="4.27233" fill="white"/>
<circle cx="56.1732" cy="98.9061" r="4.27233" fill="white"/>
<circle cx="159.975" cy="98.9061" r="4.27233" fill="white"/>
<circle cx="82.1239" cy="98.9061" r="4.27233" fill="white"/>
<circle cx="185.926" cy="98.9061" r="4.27233" fill="white"/>
</svg>
