<svg width="98" height="93" viewBox="0 0 98 93" fill="none" xmlns="http://www.w3.org/2000/svg">
<path d="M21.6007 56.1749L18.208 68.2542L5.80785 68.5044C2.10201 61.949 0 54.4487 0 46.4784C0 38.7712 1.96533 31.5032 5.44901 25.1035H5.45168L16.4913 27.0338L21.3274 37.4994C20.3152 40.3137 19.7635 43.3348 19.7635 46.4784C19.7639 49.8902 20.4119 53.1591 21.6007 56.1749Z" fill="#FBBB00"/>
<path d="M96.6155 37.7959C97.1752 40.6075 97.467 43.5111 97.467 46.4786C97.467 49.8062 97.1002 53.052 96.4014 56.1829C94.029 66.8372 87.8302 76.1404 79.243 82.724L79.2403 82.7215L65.3353 82.0448L63.3673 70.3281C69.0653 67.1411 73.5183 62.1536 75.864 56.1829H49.8049V37.7959H76.2442H96.6155Z" fill="#518EF8"/>
<path d="M79.2401 82.721L79.2427 82.7235C70.8912 89.1257 60.2822 92.9563 48.7335 92.9563C30.1746 92.9563 14.0391 83.0632 5.80786 68.5042L21.6007 56.1748C25.7162 66.6502 36.3118 74.1072 48.7335 74.1072C54.0727 74.1072 59.0747 72.7307 63.3668 70.3276L79.2401 82.721Z" fill="#28B446"/>
<path d="M79.8399 10.7002L64.0523 23.0271C59.6101 20.3789 54.3591 18.8491 48.7334 18.8491C36.0306 18.8491 25.2369 26.6482 21.3275 37.4992L5.45164 25.1033H5.44897C13.5597 10.1894 29.8987 0 48.7334 0C60.558 0 71.3998 4.0171 79.8399 10.7002Z" fill="#F14336"/>
</svg>
