<svg width="18" height="21" viewBox="0 0 18 21" fill="none" xmlns="http://www.w3.org/2000/svg">
<path d="M16.7199 6.10845C16.3389 5.64527 15.8673 5.28105 15.3409 5.03261C15.362 4.85998 15.3746 4.68523 15.3746 4.51049C15.3746 2.22197 13.5135 0.36084 11.2271 0.36084C8.94066 0.36084 7.07742 2.22197 7.07742 4.51049C7.07742 5.13367 7.21848 5.75054 7.48586 6.30846C6.64582 7.55482 6.57003 9.1991 7.33638 10.5234L5.04997 12.8077L1.05612 16.8036C0.656099 17.2036 0.656099 17.8563 1.05612 18.2563C1.45613 18.6563 2.10879 18.6563 2.50881 18.2563L3.15094 17.6142L3.59096 18.0542C3.99098 18.4542 4.64363 18.4542 5.04365 18.0542C5.44367 17.6542 5.44367 17.0015 5.04365 16.6015L4.60363 16.1615L4.95944 15.8057L5.39946 16.2457C5.78263 16.6436 6.47108 16.6436 6.85215 16.2457C7.25006 15.8625 7.25006 15.1741 6.85215 14.793L6.41213 14.353L8.79118 11.974C9.78701 12.5508 10.9934 12.6666 12.0882 12.2855C12.1576 12.315 12.2271 12.3424 12.2966 12.3698V16.8499V18.4079V19.4522C12.2966 19.528 12.3261 19.6016 12.3766 19.6585L13.4272 20.787C13.5366 20.9091 13.7451 20.9133 13.8588 20.7954L14.9978 19.6669C15.0546 19.6101 15.0862 19.5343 15.0862 19.4522V18.4563C15.0862 18.3637 15.0441 18.2753 14.9704 18.2184L14.3072 17.7047L14.9704 17.191C15.1241 17.0773 15.1241 16.8289 14.9704 16.7152L14.3072 16.2015L14.9704 15.6878C15.1241 15.5741 15.1241 15.3257 14.9704 15.212L14.3072 14.6983L14.9704 14.1846C15.0441 14.1277 15.0862 14.0393 15.0862 13.9467V12.3382C16.6105 11.7466 17.6189 10.2855 17.6189 8.63276C17.6189 8.15485 17.5347 7.68536 17.3684 7.24113C17.301 7.06007 17.2084 6.84953 17.0757 6.62426C16.9599 6.41794 16.8357 6.2474 16.7199 6.10845ZM12.9387 7.59062C12.9387 7.18849 13.265 6.86006 13.6693 6.86006C13.7345 6.86006 13.7977 6.87059 13.8588 6.88532C13.5977 7.17376 13.2903 7.42008 12.9408 7.61377C12.9408 7.60746 12.9387 7.59904 12.9387 7.59062ZM13.6693 8.32117C13.4945 8.32117 13.3324 8.25801 13.2082 8.15485C13.6356 7.92326 14.0103 7.6222 14.3261 7.2706C14.3746 7.36745 14.4019 7.47482 14.4019 7.59062C14.3977 7.99484 14.0714 8.32117 13.6693 8.32117ZM11.2271 0.96297C13.1829 0.96297 14.7746 2.55462 14.7746 4.51049C14.7746 4.61154 14.7704 4.7126 14.762 4.81366C14.404 4.71049 14.0314 4.65576 13.6482 4.65576C13.1914 4.65576 12.7513 4.73365 12.3429 4.87682C10.8586 4.24521 9.11751 4.57575 7.97219 5.72317C7.95325 5.74212 7.9364 5.76107 7.91746 5.78001C7.76376 5.37789 7.68376 4.94629 7.68376 4.51049C7.67955 2.55462 9.2712 0.96297 11.2271 0.96297ZM8.91329 11.3424C8.79328 11.2623 8.63538 11.2792 8.53432 11.3802L5.77421 14.1404C5.65631 14.2583 5.65631 14.4477 5.77421 14.5656L6.42687 15.2183C6.59108 15.3762 6.59108 15.6604 6.42687 15.8204C6.26897 15.9847 5.98474 15.9847 5.82474 15.8204L5.17208 15.1678C5.05418 15.0499 4.8647 15.0499 4.7468 15.1678L3.96571 15.9489C3.84992 16.0604 3.84992 16.2626 3.96571 16.3741L4.61837 17.0268C4.78469 17.1931 4.78469 17.4626 4.61837 17.6289C4.45205 17.7953 4.18256 17.7953 4.01624 17.6289L3.36358 16.9763C3.24568 16.8584 3.0562 16.8584 2.9383 16.9763L2.08353 17.831C1.9172 17.9974 1.64772 17.9974 1.4814 17.831C1.31507 17.6647 1.31507 17.3952 1.4814 17.2289L4.99944 13.7109L7.93219 10.7781C8.03325 10.6771 8.05009 10.5171 7.97009 10.3992C7.08374 9.06857 7.26269 7.28113 8.39537 6.14845C9.22909 5.31473 10.4355 4.9884 11.5576 5.25157C11.1597 5.4979 10.8102 5.81159 10.5218 6.17792C9.98701 6.23687 9.48805 6.47478 9.10487 6.85795C8.18062 7.7822 8.18062 9.28542 9.10487 10.2097C9.45015 10.5549 9.88175 10.7802 10.3597 10.8644C10.3976 10.9192 10.4355 10.9739 10.4776 11.0287C10.7197 11.3487 11.0102 11.6287 11.3323 11.8603C10.4965 11.9971 9.62911 11.8182 8.91329 11.3424ZM9.94912 10.0939C9.79543 10.0118 9.65648 9.90861 9.53015 9.78229C9.06487 9.317 8.91329 8.65171 9.0775 8.058C9.2712 8.1759 9.4712 8.27486 9.68174 8.35907C9.67542 8.44749 9.67332 8.53802 9.67332 8.62855C9.67121 9.13805 9.76595 9.63281 9.94912 10.0939ZM9.77016 7.74431C9.62068 7.67693 9.47542 7.59904 9.33646 7.51061C9.39331 7.43061 9.45647 7.35271 9.53015 7.28113C9.68384 7.12744 9.86491 7.00322 10.0607 6.9169C9.93438 7.17797 9.83754 7.45587 9.77016 7.74431Z" fill="#13A6BA"/>
</svg>
