<svg width="16" height="20" viewBox="0 0 16 20" fill="none" xmlns="http://www.w3.org/2000/svg">
<path d="M8.18989 0.121094C4.05257 0.121094 0.687378 3.33913 0.687378 7.29776C0.687378 12.9215 7.48315 18.7269 7.77239 18.9706C7.8906 19.0709 8.03899 19.1211 8.18738 19.1211C8.33577 19.1211 8.48416 19.0709 8.60237 18.9706C8.8916 18.7269 15.6874 12.9192 15.6874 7.29537C15.6899 3.33913 12.3247 0.121094 8.18989 0.121094ZM8.18989 11.2062C5.8911 11.2062 4.02239 9.43117 4.02239 7.24759C4.02239 5.06401 5.8911 3.28896 8.18989 3.28896C10.4887 3.28896 12.3574 5.06401 12.3574 7.24759C12.3574 9.43117 10.4862 11.2062 8.18989 11.2062Z" fill="#13A6BA"/>
</svg>
