<svg width="26" height="28" viewBox="0 0 26 28" fill="none" xmlns="http://www.w3.org/2000/svg">
<path d="M7.22673 15.3921L3.23071 18.8126V5.13052C3.23071 4.90373 3.3158 4.68622 3.46726 4.52585C3.61872 4.36548 3.82414 4.27539 4.03834 4.27539H16.9603C17.1745 4.27539 17.3799 4.36548 17.5314 4.52585C17.6829 4.68622 17.7679 4.90373 17.7679 5.13052V14.537C17.7679 14.7638 17.6829 14.9813 17.5314 15.1416C17.3799 15.302 17.1745 15.3921 16.9603 15.3921H7.22673Z" stroke="#CCCFD0" stroke-width="1.7" stroke-linecap="round" stroke-linejoin="round"/>
<path d="M8.07642 15.3922V19.6678C8.07642 19.8946 8.1615 20.1121 8.31296 20.2725C8.46442 20.4329 8.66984 20.523 8.88404 20.523H18.6176L22.6136 23.9435V10.2614C22.6136 10.0346 22.5286 9.81708 22.3771 9.65671C22.2256 9.49634 22.0202 9.40625 21.806 9.40625H17.7679" stroke="#CCCFD0" stroke-width="1.7" stroke-linecap="round" stroke-linejoin="round"/>
</svg>
