<svg width="122" height="122" viewBox="0 0 122 122" fill="none" xmlns="http://www.w3.org/2000/svg">
<rect x="0.065918" y="0.434082" width="120.964" height="120.964" rx="10" fill="#FBFCED"/>
<path d="M61.4648 93.8816C61.1783 93.8816 60.9058 93.8251 60.6403 93.7193C44.4521 87.0451 34 71.3331 34 53.688V40.8052C34 39.9092 34.531 39.112 35.3484 38.7663L60.6264 28.1693C60.8919 28.0564 61.1713 28 61.4578 28C61.7442 28 62.0307 28.0564 62.2962 28.1693L87.5741 38.7663C88.3916 39.112 88.9226 39.9092 88.9226 40.8052V53.688C88.9226 71.3331 78.4704 87.0521 62.2892 93.7193C62.0237 93.8251 61.7442 93.8816 61.4648 93.8816ZM38.3667 42.2727V53.681C38.3667 69.0613 47.3726 83.0095 61.3041 89.211L61.4648 89.2816L61.6255 89.211C75.557 83.0095 84.5629 69.0684 84.5629 53.681V42.2727L61.4648 32.5929L38.3667 42.2727ZM58.6072 68.3558C58.0273 68.3558 57.4754 68.123 57.0631 67.7067L49.8598 60.4328C49.4476 60.0166 49.2171 59.4592 49.2171 58.8736C49.2171 58.288 49.4476 57.7307 49.8598 57.3144C50.2721 56.8982 50.824 56.6653 51.4039 56.6653C51.9838 56.6653 52.5358 56.8982 52.948 57.3144L58.6142 63.0362L69.9816 51.5574C70.3938 51.1411 70.9457 50.9083 71.5256 50.9083C72.1055 50.9083 72.6575 51.1411 73.0697 51.5574C73.4819 51.9736 73.7125 52.531 73.7125 53.1166C73.7125 53.7021 73.4819 54.2595 73.0697 54.6758L60.1513 67.7067C59.7391 68.123 59.1941 68.3558 58.6072 68.3558Z" fill="#B3C41D"/>
</svg>
