<svg width="122" height="122" viewBox="0 0 122 122" fill="none" xmlns="http://www.w3.org/2000/svg">
<rect x="0.065918" y="0.500488" width="120.964" height="120.964" rx="10" fill="#FBFCED"/>
<path d="M91.484 56.652C91.4772 56.652 91.4772 56.652 91.484 56.652L64.8612 29.7751C63.7282 28.631 62.2244 28 60.6175 28C59.0107 28 57.5069 28.631 56.367 29.7751L29.7717 56.6381C29.7648 56.6451 29.7511 56.6589 29.7442 56.6659C27.4163 59.0304 27.4163 62.8719 29.7579 65.2296C30.8223 66.3113 32.2368 66.9354 33.7407 66.9978C33.8025 67.0047 33.8643 67.0047 33.9261 67.0047H34.9836V86.781C34.9836 90.6918 38.1355 93.8816 42.0152 93.8816H52.4254C53.4829 93.8816 54.3344 93.0148 54.3344 91.9539V76.4421C54.3344 74.6531 55.7764 73.2039 57.5412 73.2039H63.6801C65.4518 73.2039 66.887 74.6531 66.887 76.4421V91.9469C66.887 93.0148 67.7453 93.8746 68.796 93.8746H79.2061C83.0859 93.8746 86.2378 90.6918 86.2378 86.774V67.0047H87.2197C88.8266 67.0047 90.3304 66.3737 91.4703 65.2296C93.8188 62.865 93.8188 59.0166 91.484 56.652ZM88.7785 62.4975C88.3665 62.9136 87.8171 63.1424 87.2334 63.1424H84.3356C83.2781 63.1424 82.4267 64.0092 82.4267 65.0701V86.774C82.4267 88.5561 80.9915 90.0123 79.2198 90.0123H70.7187V76.4421C70.7187 72.5313 67.5668 69.3415 63.687 69.3415H57.5481C53.6683 69.3415 50.5164 72.5243 50.5164 76.4421V90.0192H42.0152C40.2505 90.0192 38.8084 88.57 38.8084 86.781V65.077C38.8084 64.0092 37.9501 63.1493 36.8994 63.1493H34.0497C34.0222 63.1493 33.9879 63.1424 33.9604 63.1424C33.3905 63.1354 32.8549 62.9066 32.4566 62.4975C31.6051 61.6377 31.6051 60.237 32.4566 59.3771L59.0725 32.5072C59.4845 32.0912 60.0339 31.8623 60.6175 31.8623C61.2012 31.8623 61.7506 32.0912 62.1626 32.5072L88.7716 59.3771C88.7785 59.3841 88.7785 59.3841 88.7854 59.391C89.6231 60.2439 89.6231 61.6446 88.7785 62.4975Z" fill="#B3C41D"/>
</svg>
