<svg width="122" height="122" viewBox="0 0 122 122" fill="none" xmlns="http://www.w3.org/2000/svg">
<rect x="0.065918" y="0.564941" width="120.964" height="120.964" rx="10" fill="#FBFCED"/>
<path d="M59.6993 87.0753C58.2829 85.9338 57.0299 84.6067 55.9676 83.1214C55.3752 82.2963 54.2312 82.1106 53.4141 82.702C52.5969 83.3002 52.4131 84.4554 52.9987 85.2806C54.2516 87.034 55.7361 88.6156 57.4113 89.9633C57.7313 90.2246 58.1399 90.369 58.5484 90.369C59.1068 90.369 59.6312 90.1146 59.9784 89.6745C60.6185 88.8769 60.4892 87.7079 59.6993 87.0753Z" fill="#B3C41D"/>
<path d="M81.9052 54.1652C83.4714 55.0798 84.9083 56.2075 86.1748 57.5208C86.5221 57.8784 86.9852 58.0778 87.4823 58.0778C87.9657 58.0778 88.4152 57.8922 88.7556 57.5552C89.4775 56.847 89.4911 55.6711 88.7897 54.9422C87.2916 53.3882 85.5892 52.0542 83.737 50.9746C82.8654 50.4658 81.7418 50.7683 81.2379 51.6485C80.9928 52.0748 80.9247 52.5699 81.0541 53.0513C81.1766 53.5257 81.4762 53.9177 81.9052 54.1652Z" fill="#B3C41D"/>
<path d="M89.3889 61.9151C90.2537 63.5241 90.9006 65.2363 91.3024 67.0173C91.493 67.8631 92.2285 68.4544 93.0865 68.4544C93.2227 68.4544 93.3589 68.4407 93.4951 68.4063C94.4756 68.1794 95.0953 67.1892 94.8706 66.199C94.3939 64.088 93.6312 62.0526 92.603 60.1479C92.3715 59.7147 91.9833 59.3984 91.5135 59.2608C91.0436 59.1233 90.5533 59.1783 90.1243 59.4121C89.6953 59.6459 89.3821 60.0379 89.2459 60.5123C89.1097 60.9868 89.1506 61.4819 89.3889 61.9151Z" fill="#B3C41D"/>
<path d="M69.5663 91.2765C67.7686 91.0496 66.0118 90.5751 64.3434 89.8668C63.4173 89.468 62.3414 89.915 61.9465 90.8501C61.5515 91.7853 61.9941 92.8718 62.9202 93.2706C64.895 94.1095 66.9787 94.6734 69.1101 94.9415C69.185 94.9484 69.2599 94.9553 69.3348 94.9553C70.2541 94.9553 71.0372 94.2608 71.1461 93.3394C71.2074 92.8511 71.0712 92.3629 70.7716 91.9778C70.472 91.5928 70.0498 91.3384 69.5663 91.2765Z" fill="#B3C41D"/>
<path d="M53.4414 78.2942C52.8558 76.6714 52.4813 74.9661 52.3315 73.2333C63.54 72.3187 72.5081 63.462 73.7134 52.2262L73.7202 52.2331L73.7406 52.0199C73.7543 51.8755 73.7679 51.7311 73.7815 51.5798C74.837 51.6761 75.8856 51.8549 76.9071 52.1162C77.3837 52.2399 77.874 52.1643 78.2894 51.9099C78.7116 51.6555 79.0044 51.2566 79.127 50.7753C79.2495 50.3008 79.1746 49.7989 78.9295 49.3794C78.6775 48.9531 78.2826 48.6574 77.8059 48.5336C76.4985 48.1967 75.157 47.9766 73.7951 47.8804C72.8758 35.5718 62.7024 26 50.4248 26C37.5071 26 27 36.6101 27 49.6545C27 62.0662 36.4721 72.3256 48.6611 73.2401C48.8177 75.3993 49.274 77.5241 50.0026 79.5526C50.2682 80.2815 50.9559 80.7697 51.7186 80.7697C51.9297 80.7697 52.1408 80.7353 52.3451 80.6597C53.2984 80.309 53.7819 79.25 53.4414 78.2942ZM48.6747 69.5407C38.5285 68.6399 30.6567 60.0033 30.6567 49.6545C30.6567 38.6455 39.5227 29.6926 50.4248 29.6926C60.6731 29.6926 69.2259 37.6416 70.118 47.8872C58.6916 48.8224 49.6008 58.0023 48.6747 69.5407ZM52.3451 69.5269C53.2507 60.072 60.7412 52.515 70.1043 51.5936C69.1919 61.0485 61.7082 68.6055 52.3451 69.5269Z" fill="#B3C41D"/>
<path d="M94.9455 71.3077C94.6186 70.9432 94.1692 70.7301 93.6789 70.7026C93.1818 70.6751 92.7256 70.847 92.3647 71.177C92.0037 71.5071 91.7927 71.9609 91.7654 72.456C91.6769 74.2851 91.3432 76.0936 90.7644 77.8195C90.4444 78.7822 90.9619 79.8343 91.9152 80.1575C92.1059 80.2194 92.3034 80.2537 92.494 80.2537C93.2771 80.2537 93.9785 79.7449 94.2237 78.9954C94.9046 76.9462 95.2996 74.8077 95.4085 72.6348C95.4426 72.1466 95.2791 71.6721 94.9455 71.3077Z" fill="#B3C41D"/>
<path d="M90.9006 82.2201C90.0698 81.6494 88.9326 81.8626 88.3606 82.7015C87.3392 84.2074 86.1203 85.5758 84.7311 86.7516C84.3566 87.0679 84.1251 87.5149 84.0842 88.0031C84.0434 88.4913 84.1932 88.9726 84.5064 89.3508C84.8537 89.7703 85.3644 90.011 85.9092 90.011C86.3382 90.011 86.7536 89.8597 87.0872 89.5778C88.7283 88.1819 90.172 86.5728 91.3841 84.785C91.9492 83.9461 91.7381 82.7977 90.9006 82.2201Z" fill="#B3C41D"/>
<path d="M80.155 89.668C78.5071 90.4175 76.7639 90.9401 74.9729 91.2083C74.4895 91.2839 74.0673 91.5383 73.7745 91.9371C73.4817 92.336 73.3659 92.8173 73.434 93.3055C73.5702 94.1994 74.3465 94.8802 75.2385 94.8802C75.327 94.8802 75.4156 94.8733 75.5109 94.8596C77.6355 94.5364 79.7056 93.9244 81.6599 93.0305C82.1025 92.8242 82.443 92.4598 82.6201 91.999C82.7903 91.5383 82.7767 91.0364 82.5724 90.5894C82.1638 89.6611 81.0811 89.2485 80.155 89.668Z" fill="#B3C41D"/>
<path d="M40.8847 35.4274C40.4012 35.3724 39.9245 35.5099 39.5432 35.8193C35.3349 39.1887 32.9243 44.2359 32.9243 49.6544C32.9243 50.6721 33.7415 51.4973 34.7493 51.4973C35.7571 51.4973 36.5742 50.6721 36.5742 49.6544C36.5742 45.3705 38.4809 41.3754 41.8108 38.7074C42.1921 38.3979 42.4372 37.9647 42.4917 37.4696C42.5462 36.9814 42.41 36.5001 42.1036 36.1081C41.7971 35.7162 41.3749 35.4824 40.8847 35.4274Z" fill="#B3C41D"/>
<path d="M50.4246 31.9824C48.7767 31.9824 47.1425 32.2162 45.5694 32.6701C44.6025 32.952 44.0373 33.9765 44.3165 34.953C44.5412 35.7369 45.263 36.287 46.0734 36.287C46.2436 36.287 46.4138 36.2595 46.5841 36.2113C47.8234 35.8469 49.1172 35.6681 50.4246 35.6681C51.4325 35.6681 52.2496 34.843 52.2496 33.8253C52.2496 32.8076 51.4325 31.9824 50.4246 31.9824Z" fill="#B3C41D"/>
</svg>
